<?xml version="1.0" encoding="utf-8"?>
<!-- Generator: Adobe Illustrator 24.1.1, SVG Export Plug-In . SVG Version: 6.00 Build 0)  -->
<svg version="1.1" id="Layer_1" xmlns="http://www.w3.org/2000/svg" xmlns:xlink="http://www.w3.org/1999/xlink" x="0px" y="0px"
	 viewBox="0 0 69.5 12" enable-background="new 0 0 69.5 12" xml:space="preserve">
<g>
	<path fill="#080A0B" d="M61.3,6.6c0-1.5,0-3.1,0-4.6c0-0.5,0.2-0.8,0.7-0.8C63.1,1.1,64.1,1,65.2,1c2.6,0.1,4,1.4,4.2,3.9
		c0.1,1.2,0.1,2.4-0.1,3.6c-0.3,2-1.6,3.3-3.7,3.5c-1.3,0.1-2.6,0-3.9-0.1c-0.5-0.1-0.6-0.3-0.6-0.8C61.3,9.7,61.3,8.1,61.3,6.6z
		 M63.8,6.5c0,0.8,0,1.6,0,2.4c0,1.1,0,1.1,1.1,1.1c1.2,0,1.9-0.6,2-1.7s0.1-2.3,0-3.5c-0.1-1.1-0.7-1.6-1.8-1.7c-0.3,0-0.6,0-0.8,0
		c-0.4,0-0.5,0.1-0.5,0.5C63.8,4.6,63.8,5.6,63.8,6.5z"/>
	<path fill="#080A0B" d="M50.8,6.5c0-0.9,0-1.8,0.2-2.7c0.5-1.6,1.7-2.6,3.4-2.8c0.6,0,1.2,0,1.8,0.1c1.9,0.4,3,1.7,3.2,3.9
		c0.1,1.2,0.1,2.4,0,3.6c-0.3,2.1-1.7,3.4-3.8,3.5c-3,0.2-4.8-1.4-4.8-4.5C50.8,7.2,50.8,6.9,50.8,6.5z M56.9,6.6
		c0-0.8,0.1-1.5-0.2-2.2c-0.3-0.8-0.8-1.2-1.7-1.2c-0.8,0-1.4,0.4-1.6,1.2c-0.3,1.4-0.3,2.9,0,4.4C53.6,9.6,54.1,10,55,10
		s1.4-0.4,1.7-1.2C57,8.1,56.9,7.3,56.9,6.6z"/>
	<path fill="#080A0B" d="M49.2,6.6c0,0.9,0.1,1.9-0.2,2.8c-0.5,1.4-1.4,2.3-2.9,2.6c-1,0.2-1.9,0.2-2.8-0.1
		c-1.4-0.4-2.3-1.4-2.5-2.9c-0.3-1.6-0.3-3.3,0-5c0.3-1.8,1.7-2.9,3.5-3.1c0.6,0,1.1,0,1.7,0.1c1.9,0.4,3.1,1.7,3.2,3.8
		C49.2,5.4,49.2,6,49.2,6.6z M46.7,6.6c0-0.7,0-1.4-0.1-2.1c-0.2-0.9-0.8-1.3-1.7-1.3s-1.5,0.5-1.6,1.4c-0.2,1.3-0.2,2.7,0,4
		C43.5,9.5,44,10,45,10c0.9,0,1.5-0.4,1.7-1.4C46.7,7.9,46.7,7.3,46.7,6.6z"/>
	<path fill="#080A0B" d="M18.2,6.6c0,0.9,0,1.7-0.2,2.6c-0.5,1.7-1.7,2.8-3.5,2.9c-0.6,0-1.1,0.1-1.7-0.1c-1.7-0.3-2.8-1.4-3.1-3.1
		c-0.3-1.6-0.3-3.1,0-4.7c0.3-1.9,1.7-3,3.6-3.2c2.5-0.2,4.1,0.8,4.7,2.8C18.3,4.8,18.2,5.7,18.2,6.6z M15.7,6.6
		c0-0.7,0.1-1.4-0.1-2.1c-0.2-0.9-0.8-1.3-1.7-1.3s-1.5,0.4-1.7,1.3c-0.3,1.4-0.3,2.8,0,4.2C12.4,9.6,13,10,13.9,10s1.4-0.4,1.6-1.3
		C15.8,8,15.7,7.3,15.7,6.6z"/>
	<path fill="#080A0B" d="M7.8,9.1c0,0.7,0,1.4,0,2.1c0,0.4-0.1,0.7-0.6,0.7c-1,0.1-2.1,0.2-3.2,0.2C1.8,12,0.4,10.7,0.1,8.4
		C0,7,0,5.7,0.2,4.3c0.3-1.9,1.6-3,3.5-3.3C5,0.9,6.2,1,7.5,1.3c0.3,0.1,0.4,0.2,0.4,0.5C8,3.3,8,3.3,6.5,3.2c-0.7,0-1.4-0.1-2.1,0
		c-1,0.1-1.5,0.5-1.6,1.6C2.6,6,2.5,7.2,2.7,8.4c0.2,1.3,1.1,1.9,2.4,1.6c0.3-0.1,0.3-0.3,0.3-0.5c0-0.9,0-1.8,0-2.7
		c0-0.4,0.2-0.6,0.6-0.6s0.9,0,1.4,0c0.4,0,0.5,0.2,0.5,0.5C7.8,7.6,7.8,8.3,7.8,9.1z"/>
	<path fill="#080A0B" d="M32.4,7.5c0-1.2,0-2.4,0-3.6c0-1.8,1-2.8,2.7-2.9c1.2-0.1,2.3,0,3.5,0.1c0.3,0,0.5,0.2,0.5,0.5
		c0,1.8,0.2,1.4-1.4,1.5c-0.6,0-1.3,0-1.9,0c-0.7,0-0.9,0.2-1,0.9c-0.1,1.4-0.1,1.4,1.3,1.4c0.7,0,1.5,0,2.2,0C38.8,5.4,39,5.6,39,6
		c0,1.7,0.2,1.4-1.4,1.4c-0.8,0-1.5,0-2.3,0c-0.4,0-0.5,0.1-0.5,0.5c0,1.2,0,2.3,0,3.5c0,0.4-0.1,0.6-0.6,0.6c-1.9,0-1.9,0-1.9-1.9
		C32.4,9.3,32.4,8.4,32.4,7.5z"/>
	<path fill="#E63036" d="M27.4,9c0-0.7,0.1-1.3,0-2s0.5-1.3,0.4-2.1c0-0.2-0.1-0.4-0.3-0.6c-1-0.9-1.1-2.9-0.3-3.9
		c0.5-0.6,1.1-0.6,1.7-0.1c0.9,1,0.8,3.1-0.1,4c-0.3,0.3-0.5,1.3-0.2,1.6c0.2,0.3,0.2,0.5,0.2,0.8c0,1.5,0,3.1,0,4.6
		c0,0.5-0.1,0.8-0.7,0.8s-0.6-0.4-0.6-0.8C27.4,10.6,27.4,9.8,27.4,9z"/>
	<path fill="#E63036" d="M22.2,8.9c0-0.7,0-1.4,0-2.1c0-0.4,0-0.7,0.2-1c0.2-0.4,0.3-0.9-0.3-1.2c-0.5-0.3-0.7-0.7-0.6-1.3
		c0-0.8,0-1.6,0-2.5c0-0.2,0-0.4,0.1-0.6C21.7,0.1,21.8,0,22,0.1s0.1,0.2,0.1,0.3c0,0.9,0,1.9,0,2.8c0,0.2-0.1,0.6,0.3,0.5
		c0.3,0,0.2-0.3,0.2-0.5c0-0.8,0-1.7,0-2.5c0-0.2-0.1-0.6,0.2-0.6c0.4,0,0.2,0.4,0.2,0.6c0,0.8,0,1.7,0,2.5c0,0.2-0.1,0.5,0.2,0.5
		c0.3,0,0.2-0.3,0.2-0.5c0-0.9,0-1.8,0-2.7c0-0.2-0.1-0.4,0.2-0.4c0.2,0,0.4,0.1,0.4,0.3s0,0.3,0,0.5c0,0.8,0,1.6,0,2.5
		c0,0.5-0.2,0.8-0.5,1.2C23,5,22.9,5.5,23.3,6c0.1,0.2,0.2,0.4,0.2,0.6c0,1.6,0,3.2,0,4.8c0,0.5-0.1,0.8-0.7,0.8s-0.7-0.3-0.7-0.8
		C22.2,10.5,22.2,9.7,22.2,8.9z"/>
</g>
</svg>
