<?xml version="1.0" encoding="utf-8"?>
<!-- Generator: Adobe Illustrator 24.1.1, SVG Export Plug-In . SVG Version: 6.00 Build 0)  -->
<svg version="1.1" id="Layer_1" xmlns="http://www.w3.org/2000/svg" xmlns:xlink="http://www.w3.org/1999/xlink" x="0px" y="0px"
	 viewBox="0 0 62.28 21.11" enable-background="new 0 0 62.28 21.11" xml:space="preserve">
<g>
	<path fill="#27A626" d="M27.36,8.32c0,1.14,0.04,1.91-0.01,2.67c-0.12,1.98-0.86,3.68-2.51,4.88c-0.72,0.52-1.6,0.76-2.44,0.86
		c-1.48,0.19-3,0.15-4.37-0.57c-1.82-0.95-2.7-2.55-3-4.51c-0.25-1.61-0.15-3.24-0.1-4.86c0.06-1.95,0.73-3.69,2.33-4.9
		c0.85-0.64,1.85-0.96,2.95-1.04c0.97-0.07,1.92-0.08,2.88,0.13c1.99,0.44,3.66,2.21,4.09,4.22C27.42,6.37,27.29,7.53,27.36,8.32z
		 M23.75,8.66c0-0.69,0.03-1.38-0.01-2.07c-0.04-0.8-0.3-1.59-0.9-2.1c-0.85-0.72-1.9-0.79-2.9-0.32c-0.91,0.43-1.21,1.28-1.32,2.24
		c-0.09,0.78,0.01,1.56-0.05,2.34c-0.09,0.99-0.06,1.98,0.17,2.94c0.22,0.9,0.66,1.6,1.66,1.9c1.34,0.4,2.87-0.47,3.18-1.81
		C23.82,10.74,23.73,9.7,23.75,8.66z"/>
	<path fill="#27A626" d="M53.04,9.52c0,0.37,0,0.73,0,1.1c0,1.77-0.01,3.55,0.01,5.32c0.01,0.48-0.16,0.68-0.65,0.66
		c-0.77-0.02-1.53-0.02-2.3,0c-0.44,0.01-0.65-0.15-0.65-0.61c0-4.8,0-9.6,0-14.4c0-0.47,0.24-0.68,0.69-0.68
		c0.75,0,1.49-0.01,2.24,0c0.38,0.01,0.65,0.13,0.69,0.61c0.1,1.23,0.04,2.46,0.03,3.69c-0.01,0.88,0,1.76,0,2.8
		c0.76-1.09,1.44-2.04,2.1-3.01c0.72-1.04,1.49-2.05,2.12-3.14c0.44-0.76,1-0.95,1.8-0.89c0.67,0.05,1.34,0,2.02,0.01
		c0.53,0.01,0.65,0.21,0.38,0.66c-0.28,0.46-0.62,0.88-0.93,1.32c-1.02,1.41-2.02,2.84-2.95,4.32c-0.2,0.31-0.43,0.61-0.68,0.89
		c-0.27,0.29-0.23,0.55-0.03,0.85c0.57,0.86,1.13,1.74,1.7,2.61c0.82,1.26,1.64,2.52,2.46,3.78c0.15,0.23,0.36,0.43,0.5,0.67
		c0.17,0.29,0.12,0.52-0.27,0.52c-1.14,0-2.28,0-3.42,0c-0.3,0-0.47-0.2-0.61-0.43c-0.89-1.48-1.76-2.97-2.66-4.44
		c-0.46-0.75-0.96-1.48-1.44-2.22C53.13,9.51,53.08,9.51,53.04,9.52z"/>
	<path fill="#27A626" d="M12.34,12.32c0,1.08-0.01,2.17,0,3.25c0,0.46-0.17,0.69-0.64,0.82c-1.91,0.5-3.87,0.6-5.77,0.31
		c-2.51-0.37-4.24-2.18-4.68-5.08C1.02,10.1,1.21,8.57,1.13,7.04C1.06,5.55,1.49,4.2,2.31,3.02C2.96,2.1,3.9,1.4,5.06,1.13
		c1.12-0.26,2.25-0.4,3.41-0.37c0.93,0.02,1.83,0.19,2.74,0.38c1.13,0.25,1.13,0.25,1.13,1.44c0,0.04,0,0.07,0,0.11
		c-0.02,1.5,0.25,1.38-1.4,1.29C9.9,3.93,8.85,3.95,7.81,3.9C5.84,3.81,5.03,4.72,4.88,6.43c-0.15,1.7-0.32,3.46,0.11,5.13
		c0.39,1.5,0.71,2.18,2.56,2.11c1.21-0.04,1.21-0.03,1.21-1.23c0-1.1,0-2.2,0-3.3c0-0.66,0.17-0.82,0.83-0.82c0.62,0,1.23,0,1.85,0
		c0.75,0,0.89,0.14,0.89,0.87C12.34,10.23,12.34,11.28,12.34,12.32z"/>
	<path fill="#27A626" d="M36.98,8.88c0-1.38-0.03-2.76,0.01-4.14c0.03-1.45,0.56-2.67,1.88-3.4c0.83-0.45,1.78-0.51,2.7-0.56
		c1.32-0.07,2.65,0.04,3.97,0.12c0.92,0.06,1.08,0.24,1.09,1.17c0,0.35-0.01,0.71,0,1.06c0.02,0.47-0.19,0.68-0.66,0.68
		c-1.34-0.01-2.69,0-4.03,0.02c-1.01,0.01-1.34,0.34-1.35,1.34c0,0.45,0.07,0.91-0.02,1.34c-0.12,0.62,0.16,0.67,0.66,0.67
		c1.38-0.02,2.76-0.01,4.14-0.01c0.9,0,1.04,0.15,1.06,1.02c0.04,2.21-0.14,1.77-1.83,1.8c-1.21,0.02-2.42,0.05-3.64,0.03
		c-0.33,0-0.38,0.11-0.38,0.38c0,0.69-0.01,1.38,0,2.07c0.01,0.79,0.38,1.18,1.2,1.2c1.36,0.02,2.73,0.01,4.09,0.02
		c0.66,0,0.75,0.09,0.76,0.73c0.01,0.5,0,1.01,0,1.51c0,0.37-0.17,0.58-0.55,0.64c-1.97,0.27-3.94,0.38-5.9,0.08
		c-1.92-0.28-3.15-1.8-3.18-3.8C36.97,11.53,36.98,10.21,36.98,8.88z"/>
	<path fill="#27A626" d="M33.86,9.34c0,2.39,0.02,4.78-0.01,7.16c-0.01,0.86-0.12,1.71-0.62,2.5c-0.56,0.88-1.38,1.21-2.31,1.36
		c-0.58,0.09-1.19,0.03-1.79,0.01c-0.55-0.01-0.74-0.27-0.7-0.82c0.03-0.54,0.05-1.08,0.01-1.62c-0.02-0.25,0.03-0.34,0.26-0.36
		c0.26-0.02,0.52-0.11,0.77-0.08c0.49,0.05,0.74-0.13,0.76-0.62c0.01-0.3,0.04-0.59,0.04-0.89c0-4.74,0-9.48,0-14.21
		c0-0.74,0-0.73,0.77-0.78c0.72-0.05,1.45,0.05,2.18-0.07c0.29-0.05,0.54,0.13,0.56,0.48c0.02,0.33,0.08,0.67,0.08,1
		C33.86,4.72,33.86,7.03,33.86,9.34C33.86,9.34,33.86,9.34,33.86,9.34z"/>
</g>
</svg>
