<?xml version="1.0" encoding="utf-8"?>
<!-- Generator: Adobe Illustrator 24.1.1, SVG Export Plug-In . SVG Version: 6.00 Build 0)  -->
<svg version="1.1" id="Layer_1" xmlns="http://www.w3.org/2000/svg" xmlns:xlink="http://www.w3.org/1999/xlink" x="0px" y="0px"
	 viewBox="0 0 850 188.66" enable-background="new 0 0 850 188.66" xml:space="preserve">
<g>
	<path fill-rule="evenodd" clip-rule="evenodd" fill="#000002" d="M29.02,146.78c3.69,12.1,11.2,22.4,26.32,29.57
		c6.04,2.87,14.57,4.08,23.45,4.34c5.77,0.17,43.28,0.16,43.28-7.94v-60.99c0-2.63-1.92-3.88-5.2-4.13
		c-4.99-0.39-13.2-0.15-21.55-0.15c-2.5,0-4.28,1.78-4.28,4.28v41.73c-13.31,0-30.25,2.39-32.83-20.34
		c-1.1-9.63-1.06-24.23-0.63-33.78c0.71-15.62,4.65-29.34,20.62-29.34l43.87,1.07c0.59-6.91,0.76-14.37,0.38-18.83
		c-0.4-4.67-0.96-5.34-5.43-6.51c-7.45-1.94-22.14-3.22-26.22-3.43c-24.73-1.25-48.35,4.89-59.05,25.51
		C23.11,84.49,23.85,129.8,29.02,146.78L29.02,146.78z M605.35,168.73l19.04-79.39l5.4-22.42c0,0,1.68-9.8,6.47-15.86
		c3.36-4.25,8.71-6.84,14.22-8.13c6.67-1.56,15.41-1.42,21.97,0.48c4.84,1.41,9.39,3.87,12.37,7.64c4.79,6.05,6.47,15.86,6.47,15.86
		l5.4,22.42l19.04,79.39c0.9,3.16,1.32,5.6,0.09,6.73c-0.7,0.64-2.37,0.62-3.71,0.63h-21.73c-1.49-0.14-2.93,0.03-3.74-0.8
		c-1.28-1.31-1.54-4.02-2.12-5.92l-5.63-25.75c-12.23,0-24.45,0-36.68,0l-5.64,25.75c-0.61,1.99-0.25,4.34-1.66,5.66
		c-0.79,0.74-2.83,0.94-4.21,1.07h-21.73c-1.3-0.02-3.02,0.01-3.71-0.58C603.96,174.4,604.43,171.95,605.35,168.73L605.35,168.73z
		 M773.59,178.91h-0.75h-9.8c-2.8-0.26-4.64-2.38-4.6-5.2v-46.64c-6.02-3.14-9.8-9.09-13.04-16.35l-22.83-54.6
		c-0.85-2.04-1.5-3.15-1.28-5.47c0.17-1.8,1.09-2.72,3.47-2.85h17.93c2.15-0.03,4.16,0.29,5.87,1.35c2.27,1.41,2.55,2.67,3.43,4.97
		l16.71,43.85c3.56,9.36,6.21,7.4,9.15-0.3l16.67-43.75c0.68-1.79,0.84-2.71,2.35-4.03c1.9-1.66,4.28-2.12,6.86-2.09h17.93
		c2.05,0.12,3.01,0.81,3.35,2.14c0.51,2.02-0.08,3.58-0.83,5.37l-23.17,55.4c-3.24,7.26-7.01,13.21-13.04,16.35v46.64
		c0.04,2.82-1.8,4.94-4.6,5.2H773.59L773.59,178.91z M507.31,176.11c-5.2,0.21-9.17-0.76-9.19-4.75c0-38.91,0-75.86,0-114.76
		c0-3.83,0.59-6.92,3.62-9.68c3.12-2.85,8.03-4.21,13.62-3.96c12.36,0,21.32,0,33.68,0c12.26-0.37,21.15,1.73,28.27,5.51
		c8.31,4.42,15.79,10.98,18.94,20.05c2.23,6.41,2.68,13.7,2.37,21.37c-0.44,11.17-1.79,18.13-10.27,26.5
		c-18.07,17.81-39.58,13.38-58.9,13.94c0,13.61-0.29,26.36-0.29,39.97c0.07,3.63-0.95,5.87-4.82,5.8
		C518.67,176.11,512.99,176.11,507.31,176.11L507.31,176.11z M548.52,67.47l-19.37-0.07v38.43l16.28,0c4.71,0,9.06,0.01,13.52-1.88
		c3.45-1.46,6.17-3.91,7.68-7.93c1.37-3.65,2.16-9.36,1.51-14.46c-0.72-5.57-2.77-9.17-7.85-11.71
		C556.3,67.84,552.86,67.49,548.52,67.47L548.52,67.47z M658.78,68.38c-0.45,0.55-0.76,1.41-1,2.62l-10.4,48.12
		c9.49,0.02,17.24,0.08,26.33,0l-10.4-48.12c-0.23-1.2-0.55-2.06-0.99-2.61C661.48,67.37,659.62,67.36,658.78,68.38L658.78,68.38z
		 M195.84,153.47h-0.01c-16.79-0.37-20.84-12.29-21.68-27.49c-0.57-10.26-0.76-25.46,0.28-35.74c1.43-14.15,8.81-19.7,21.41-20.18
		c12.13,0.47,19.42,5.63,21.23,18.64c1.39,10.03,1.02,27.19,0.46,37.29C216.68,141.19,212.63,153.1,195.84,153.47L195.84,153.47z
		 M171.08,46.6c-11.12,4.19-19.38,13.4-24.18,24.74c-5.67,13.37-4.88,25.5-4.91,39.52c-0.02,9.13,0.16,17.98,1.31,26.16
		c1.48,10.53,4.57,19.94,10.94,27.38c9.79,11.44,25.95,16.69,41.6,16.63c15.65,0.06,31.82-5.19,41.6-16.63
		c6.36-7.44,9.46-16.85,10.94-27.38c1.15-8.17,1.33-17.02,1.31-26.16c-0.03-14.03,0.76-26.15-4.91-39.52
		C239.96,60,231.7,50.79,220.58,46.6C204.91,40.69,186.75,40.69,171.08,46.6z"/>
	<path fill-rule="evenodd" clip-rule="evenodd" fill="#53A1D8" d="M292.41,47.46h153.11c3.4,0,6.18,2.78,6.18,6.18v28.33h-64.5
		c-6.3,0-11.45,5.15-11.45,11.45v40.69c0,6.3,5.15,11.45,11.45,11.45h64.5v31.8c0,3.4-2.78,6.18-6.18,6.18H296.7
		c-7.09,0-10.47-5.72-10.47-10.47V53.64C286.23,50.24,289.01,47.46,292.41,47.46L292.41,47.46z M383.61,8.31l-48.25,26.41
		l66.01-19.59l-9.72-6.66C389.16,7.01,386.62,6.79,383.61,8.31L383.61,8.31z M409.43,23.12c6.14-1.93,7.3,0.39,10.52,4.64l6.66,8.78
		H370.7L409.43,23.12L409.43,23.12z M387.88,92.97v39.33h73.39V92.97H387.88L387.88,92.97z M407.39,105.48
		c-3.99,0-7.23,3.24-7.23,7.23c0,4,3.24,7.23,7.23,7.23c4,0,7.23-3.24,7.23-7.23C414.63,108.71,411.39,105.48,407.39,105.48z"/>
</g>
</svg>
