<svg xmlns="http://www.w3.org/2000/svg" width="15.965" height="18.037" viewBox="0 0 15.965 18.037">
  <path id="Path_30" data-name="Path 30" d="M281.462,26.509h-7.868a4.049,4.049,0,0,0-4.048,4.049v7.416a4.048,4.048,0,0,0,4.048,4.049h2.135l1.3,2.249a.549.549,0,0,0,.951,0l1.3-2.249h2.184a4.049,4.049,0,0,0,4.049-4.049V30.558A4.049,4.049,0,0,0,281.462,26.509Zm-4.511,11.623a.782.782,0,0,1,.241-.568.818.818,0,0,1,.585-.223c.009,0,.018,0,.018-.009a.81.81,0,0,1,.525,1.385.8.8,0,0,1-.551.215.814.814,0,0,1-.568-.206A.74.74,0,0,1,276.951,38.132Zm3.382-4.372a2.456,2.456,0,0,1-.439.594c-.172.172-.473.447-.912.843-.1.095-.2.189-.293.293a.855.855,0,0,0-.164.232,1.081,1.081,0,0,0-.086.206c-.017.069-.043.189-.086.37a.59.59,0,0,1-.637.551.676.676,0,0,1-.473-.181.7.7,0,0,1-.189-.542,1.89,1.89,0,0,1,.508-1.36q.3-.31.619-.594c.232-.2.4-.353.5-.456a1.382,1.382,0,0,0,.258-.335.8.8,0,0,0,.1-.4.956.956,0,0,0-.318-.723,1.2,1.2,0,0,0-.826-.293,1.141,1.141,0,0,0-.869.293,2.316,2.316,0,0,0-.473.878c-.12.4-.353.6-.689.6a.678.678,0,0,1-.508-.206.647.647,0,0,1-.206-.465,1.934,1.934,0,0,1,.327-1.033,2.5,2.5,0,0,1,.955-.869,3.091,3.091,0,0,1,1.463-.336,3.173,3.173,0,0,1,1.377.284,2.226,2.226,0,0,1,.912.775,1.928,1.928,0,0,1,.327,1.076A1.628,1.628,0,0,1,280.333,33.761Z" transform="translate(-269.546 -26.509)" fill="#97a2aa"/>
</svg>
