<svg xmlns="http://www.w3.org/2000/svg" width="18.96" height="17.795" viewBox="0 0 18.96 17.795">
  <path id="Home" d="M33.873,35.587c-2.044-2.069-4.108-4.12-6.17-6.167a3.876,3.876,0,0,0-5.107,0Q19.5,32.5,16.426,35.587c-.358.362-.923,1.092-.712,1.6.181.435.759.261,1.272.63,1.036.748.282,2.606,1,5.893a3.209,3.209,0,0,0,.958,1.984A3.025,3.025,0,0,0,21,46.24a1.687,1.687,0,0,0,1.255-.435c.346-.37.26-.8.25-2.179-.016-2.225.195-2.756.484-3.129a2.3,2.3,0,0,1,.823-.657,2.84,2.84,0,0,1,2.681,0,2.314,2.314,0,0,1,.823.657c.29.373.5.91.483,3.129-.01,1.379-.1,1.809.249,2.179a1.688,1.688,0,0,0,1.255.435,3.028,3.028,0,0,0,2.048-.55,3.238,3.238,0,0,0,.958-1.984c.754-3.308.128-5.157,1.194-5.893.451-.311.925-.229,1.081-.631C34.791,36.66,34.22,35.939,33.873,35.587Z" transform="translate(-15.669 -28.459)" fill="#97a2aa"/>
</svg>
