<svg xmlns="http://www.w3.org/2000/svg" width="16.302" height="14.879" viewBox="0 0 16.302 14.879">
  <g id="Group_2" data-name="Group 2" transform="translate(-394.343 -29.764)">
    <path id="Path_31" data-name="Path 31" d="M410.622,37.6l-7.331,4.9a1.141,1.141,0,0,1-1.5,0l-7.345-5.075h-.06a4.835,4.835,0,0,0-.043.617v5.313a4.891,4.891,0,0,0,4.891,4.891h6.521a4.891,4.891,0,0,0,4.891-4.891V38.038C410.645,37.888,410.635,37.742,410.622,37.6Z" transform="translate(0 -3.599)" fill="#97a2aa"/>
    <path id="Path_32" data-name="Path 32" d="M410.693,32.662c0-.087-.089-2.895-7.57-2.9h-.012c-7.6,0-7.573,2.9-7.573,2.9l7.058,5.167a.6.6,0,0,0,.918,0l7.3-5.171Z" transform="translate(-0.562 0)" fill="#97a2aa"/>
  </g>
</svg>
