<?xml version="1.0" encoding="utf-8"?>
<!-- Generator: Adobe Illustrator 24.1.1, SVG Export Plug-In . SVG Version: 6.00 Build 0)  -->
<svg version="1.1" id="Layer_1" xmlns="http://www.w3.org/2000/svg" xmlns:xlink="http://www.w3.org/1999/xlink" x="0px" y="0px"
	 viewBox="0 0 62.28 18.02" enable-background="new 0 0 62.28 18.02" xml:space="preserve">
<g display="none">
	<path display="inline" fill="#27A626" d="M27.36,6.75c0,1.14,0.04,1.91-0.01,2.67c-0.12,1.98-0.86,3.68-2.51,4.88
		c-0.72,0.52-1.6,0.76-2.44,0.86c-1.48,0.19-3,0.15-4.37-0.57c-1.82-0.95-2.7-2.55-3-4.51c-0.25-1.61-0.15-3.24-0.1-4.86
		c0.06-1.95,0.73-3.69,2.33-4.9c0.85-0.64,1.85-0.96,2.95-1.04c0.97-0.07,1.92-0.08,2.88,0.13c1.99,0.44,3.66,2.21,4.09,4.22
		C27.42,4.8,27.29,5.96,27.36,6.75z M23.75,7.09c0-0.69,0.03-1.38-0.01-2.07c-0.04-0.8-0.3-1.59-0.9-2.1
		c-0.85-0.72-1.9-0.79-2.9-0.32c-0.91,0.43-1.21,1.28-1.32,2.24c-0.09,0.78,0.01,1.56-0.05,2.34c-0.09,0.99-0.06,1.98,0.17,2.94
		c0.22,0.9,0.66,1.6,1.66,1.9c1.34,0.4,2.87-0.47,3.18-1.81C23.82,9.17,23.73,8.13,23.75,7.09z"/>
	<path display="inline" fill="#27A626" d="M53.04,7.95c0,0.37,0,0.73,0,1.1c0,1.77-0.01,3.55,0.01,5.32
		c0.01,0.48-0.16,0.68-0.65,0.66c-0.77-0.02-1.53-0.02-2.3,0c-0.44,0.01-0.65-0.15-0.65-0.61c0-4.8,0-9.6,0-14.4
		c0-0.47,0.24-0.68,0.69-0.68c0.75,0,1.49-0.01,2.24,0c0.38,0.01,0.65,0.13,0.69,0.61c0.1,1.23,0.04,2.46,0.03,3.69
		c-0.01,0.88,0,1.76,0,2.8c0.76-1.09,1.44-2.04,2.1-3.01c0.72-1.04,1.49-2.05,2.12-3.14c0.44-0.76,1-0.95,1.8-0.89
		c0.67,0.05,1.34,0,2.02,0.01c0.53,0.01,0.65,0.21,0.38,0.66c-0.28,0.46-0.62,0.88-0.93,1.32c-1.02,1.41-2.02,2.84-2.95,4.32
		c-0.2,0.31-0.43,0.61-0.68,0.89c-0.27,0.29-0.23,0.55-0.03,0.85c0.57,0.86,1.13,1.74,1.7,2.61c0.82,1.26,1.64,2.52,2.46,3.78
		c0.15,0.23,0.36,0.43,0.5,0.67c0.17,0.29,0.12,0.52-0.27,0.52c-1.14,0-2.28,0-3.42,0c-0.3,0-0.47-0.2-0.61-0.43
		c-0.89-1.48-1.76-2.97-2.66-4.44c-0.46-0.75-0.96-1.48-1.44-2.22C53.13,7.94,53.08,7.94,53.04,7.95z"/>
	<path display="inline" fill="#27A626" d="M12.34,10.75c0,1.08-0.01,2.17,0,3.25c0,0.46-0.17,0.69-0.64,0.82
		c-1.91,0.5-3.87,0.6-5.77,0.31c-2.51-0.37-4.24-2.18-4.68-5.08C1.02,8.53,1.21,7,1.13,5.47C1.06,3.98,1.49,2.63,2.31,1.45
		C2.96,0.53,3.9-0.17,5.06-0.44c1.12-0.26,2.25-0.4,3.41-0.37c0.93,0.02,1.83,0.19,2.74,0.38c1.13,0.25,1.13,0.25,1.13,1.44
		c0,0.04,0,0.07,0,0.11c-0.02,1.5,0.25,1.38-1.4,1.29C9.9,2.36,8.85,2.38,7.81,2.33C5.84,2.24,5.03,3.15,4.88,4.86
		c-0.15,1.7-0.32,3.46,0.11,5.13c0.39,1.5,0.71,2.18,2.56,2.11c1.21-0.04,1.21-0.03,1.21-1.23c0-1.1,0-2.2,0-3.3
		c0-0.66,0.17-0.82,0.83-0.82c0.62,0,1.23,0,1.85,0c0.75,0,0.89,0.14,0.89,0.87C12.34,8.66,12.34,9.71,12.34,10.75z"/>
	<path display="inline" fill="#27A626" d="M36.98,7.31c0-1.38-0.03-2.76,0.01-4.14c0.03-1.45,0.56-2.67,1.88-3.4
		c0.83-0.45,1.78-0.51,2.7-0.56c1.32-0.07,2.65,0.04,3.97,0.12c0.92,0.06,1.08,0.24,1.09,1.17c0,0.35-0.01,0.71,0,1.06
		c0.02,0.47-0.19,0.68-0.66,0.68c-1.34-0.01-2.69,0-4.03,0.02C40.93,2.27,40.6,2.6,40.59,3.6c0,0.45,0.07,0.91-0.02,1.34
		c-0.12,0.62,0.16,0.67,0.66,0.67c1.38-0.02,2.76-0.01,4.14-0.01c0.9,0,1.04,0.15,1.06,1.02c0.04,2.21-0.14,1.77-1.83,1.8
		c-1.21,0.02-2.42,0.05-3.64,0.03c-0.33,0-0.38,0.11-0.38,0.38c0,0.69-0.01,1.38,0,2.07c0.01,0.79,0.38,1.18,1.2,1.2
		c1.36,0.02,2.73,0.01,4.09,0.02c0.66,0,0.75,0.09,0.76,0.73c0.01,0.5,0,1.01,0,1.51c0,0.37-0.17,0.58-0.55,0.64
		c-1.97,0.27-3.94,0.38-5.9,0.08c-1.92-0.28-3.15-1.8-3.18-3.8C36.97,9.96,36.98,8.64,36.98,7.31z"/>
	<path display="inline" fill="#27A626" d="M33.86,7.77c0,2.39,0.02,4.78-0.01,7.16c-0.01,0.86-0.12,1.71-0.62,2.5
		c-0.56,0.88-1.38,1.21-2.31,1.36c-0.58,0.09-1.19,0.03-1.79,0.01c-0.55-0.01-0.74-0.27-0.7-0.82c0.03-0.54,0.05-1.08,0.01-1.62
		c-0.02-0.25,0.03-0.34,0.26-0.36c0.26-0.02,0.52-0.11,0.77-0.08c0.49,0.05,0.74-0.13,0.76-0.62c0.01-0.3,0.04-0.59,0.04-0.89
		c0-4.74,0-9.48,0-14.21c0-0.74,0-0.73,0.77-0.78c0.72-0.05,1.45,0.05,2.18-0.07c0.29-0.05,0.54,0.13,0.56,0.48
		c0.02,0.33,0.08,0.67,0.08,1C33.86,3.15,33.86,5.46,33.86,7.77L33.86,7.77z"/>
</g>
<g>
	<path d="M52.89,12.04c0-1.78,0-3.57,0-5.35c0-0.31,0.13-0.44,0.44-0.44c0.63,0,1.26,0,1.89,0c0.25,0,0.38,0.14,0.38,0.39
		c0,1.48,0,2.97,0,4.45c0,0.06-0.01,0.11-0.01,0.17c0,0.04-0.05,0.1,0.02,0.12c0.05,0.01,0.08-0.04,0.1-0.08
		c0.56-0.83,1.12-1.66,1.68-2.49c0.52-0.77,1.04-1.54,1.56-2.31c0.11-0.16,0.24-0.24,0.44-0.24c0.76,0.01,1.52,0,2.27,0
		c0.05,0,0.1,0,0.15,0.01c0.15,0.03,0.22,0.16,0.15,0.3c-0.14,0.28-0.34,0.52-0.52,0.78c-0.67,0.96-1.35,1.92-2.03,2.87
		c-0.38,0.54-0.76,1.07-1.14,1.61c-0.06,0.08-0.05,0.15,0,0.22c0.64,0.95,1.27,1.9,1.91,2.84c0.58,0.86,1.16,1.73,1.73,2.6
		c0.05,0.07,0.13,0.15,0.07,0.26c-0.06,0.11-0.16,0.1-0.26,0.1c-0.86,0-1.72-0.01-2.58,0.01c-0.22,0-0.34-0.09-0.44-0.25
		c-0.67-1.08-1.33-2.16-2-3.25c-0.33-0.54-0.66-1.08-0.99-1.62c-0.02-0.04-0.05-0.11-0.11-0.09c-0.05,0.02-0.01,0.08-0.01,0.12
		c0,0.08,0.01,0.16,0.01,0.24c0,1.39,0,2.78,0,4.17c0,0.14,0.01,0.27-0.02,0.41c-0.03,0.16-0.14,0.25-0.29,0.25
		c-0.69,0-1.38,0-2.07,0c-0.2,0-0.33-0.16-0.33-0.38c0-0.59,0-1.18,0-1.77C52.89,14.47,52.89,13.26,52.89,12.04z"/>
	<path d="M8.63,14.57c0,0.85,0,1.7,0,2.54c0,0.22-0.12,0.37-0.34,0.42c-1.26,0.24-2.53,0.36-3.8,0.3c-1.41-0.07-2.55-0.67-3.35-1.85
		c-0.28-0.41-0.45-0.86-0.58-1.34c-0.17-0.62-0.21-1.25-0.2-1.88c0.01-0.87-0.03-1.74,0.03-2.6c0.08-1.08,0.43-2.07,1.19-2.87
		c0.51-0.54,1.13-0.88,1.85-1.07C4.2,6.01,5,5.97,5.8,6.01c0.81,0.04,1.61,0.15,2.4,0.32c0.04,0.01,0.09,0.01,0.14,0.02
		c0.19,0.06,0.32,0.11,0.31,0.37c-0.01,0.5,0,1.01,0,1.51c0,0.18-0.07,0.26-0.26,0.26c-0.67-0.01-1.33-0.09-1.99-0.1
		C5.93,8.38,5.46,8.37,5,8.37c-0.33,0-0.65,0.05-0.96,0.2C3.73,8.73,3.5,8.98,3.36,9.31c-0.23,0.51-0.28,1.05-0.28,1.6
		c0.01,0.8,0,1.59,0.01,2.39c0.01,0.55,0.13,1.07,0.43,1.54C3.8,15.27,4.2,15.5,4.7,15.51c0.38,0.01,0.75-0.01,1.13-0.01
		c0.11,0,0.15-0.03,0.15-0.16c-0.01-1.13-0.01-2.25,0-3.38c0-0.21,0.14-0.34,0.36-0.34c0.64,0,1.28,0,1.92,0
		c0.22,0,0.37,0.15,0.37,0.37C8.63,12.85,8.63,13.71,8.63,14.57C8.63,14.57,8.63,14.57,8.63,14.57z"/>
	<path d="M43.81,12.05c0-0.94-0.01-1.88,0-2.82c0.01-0.77,0.19-1.48,0.7-2.08c0.29-0.35,0.67-0.58,1.09-0.74
		c0.59-0.21,1.2-0.26,1.81-0.27c0.91-0.02,1.81,0.02,2.71,0.12c0.19,0.02,0.38,0.05,0.57,0.09c0.17,0.03,0.28,0.16,0.28,0.33
		c0,0.47,0,0.94,0,1.42c0,0.19-0.17,0.33-0.36,0.33c-1.08,0-2.16,0-3.23,0.01c-0.27,0-0.54,0.05-0.72,0.29
		c-0.09,0.13-0.14,0.27-0.14,0.42c-0.01,0.53-0.01,1.07-0.02,1.6c0,0.1,0.04,0.13,0.14,0.13c1.27,0,2.54,0,3.81,0
		c0.27,0,0.38,0.11,0.38,0.38c0,0.46,0,0.92,0,1.39c0,0.25-0.11,0.36-0.36,0.36c-1.28,0-2.55,0-3.83,0c-0.08,0-0.14,0-0.14,0.1
		c0.01,0.61-0.01,1.22,0.02,1.83c0.02,0.49,0.28,0.68,0.72,0.72c0.62,0.05,1.25,0.02,1.88,0.02c0.5,0,1,0,1.49,0
		c0.2,0,0.36,0.15,0.36,0.35c0,0.47,0,0.94,0,1.42c0,0.17-0.08,0.28-0.24,0.33c-0.3,0.1-0.61,0.1-0.92,0.14
		c-0.85,0.09-1.7,0.13-2.56,0.09c-0.54-0.03-1.08-0.08-1.6-0.26c-0.67-0.23-1.17-0.65-1.49-1.29c-0.29-0.58-0.36-1.21-0.36-1.84
		C43.8,13.73,43.8,12.89,43.81,12.05C43.8,12.05,43.8,12.05,43.81,12.05z"/>
	<path d="M41.83,11.48c0,1.53,0,3.06,0,4.58c0,0.45-0.08,0.89-0.38,1.25c-0.31,0.36-0.71,0.54-1.17,0.61
		c-0.55,0.09-1.11,0.05-1.66,0.07c-0.32,0.01-0.64,0.01-0.96,0.01c-0.18,0-0.25-0.07-0.26-0.25c-0.02-0.66-0.03-1.32-0.04-1.98
		c0-0.18,0.07-0.25,0.25-0.24c0.35,0,0.7,0.01,1.05,0.01c0.23,0,0.3-0.07,0.31-0.3c0.01-0.47,0-0.93,0-1.4c0-1.82,0-3.63-0.01-5.45
		c0-0.57,0-1.15-0.02-1.72c-0.01-0.24,0.12-0.37,0.37-0.36c0.72,0.02,1.43,0.01,2.15,0.02c0.27,0,0.36,0.1,0.36,0.37
		C41.83,8.29,41.83,9.88,41.83,11.48z"/>
	<path fill="#8BC53F" d="M28.16,0c0.03,0,0.05,0,0.08,0c1.01-0.03,1.98,0.19,2.93,0.52c0.86,0.3,1.67,0.71,2.38,1.29
		c0.09,0.07,0.17,0.15,0.24,0.23c0.14,0.15,0.14,0.27,0.01,0.42c-0.1,0.11-0.23,0.16-0.36,0.22c-0.05,0.02-0.1-0.01-0.14-0.04
		c-0.48-0.37-0.99-0.69-1.53-0.96c-0.52-0.26-1.06-0.46-1.63-0.61c-0.79-0.2-1.59-0.28-2.4-0.23c-0.62,0.04-1.23,0.14-1.83,0.31
		c-0.72,0.2-1.41,0.48-2.07,0.83c-0.25,0.13-0.49,0.27-0.72,0.42c-0.26,0.18-0.46,0.15-0.65-0.1c-0.17-0.23-0.15-0.36,0.09-0.52
		c0.75-0.49,1.54-0.9,2.38-1.21c0.64-0.23,1.3-0.38,1.97-0.49C27.34,0.01,27.75,0.01,28.16,0z"/>
	<path fill="#8BC53F" d="M28.04,2.05c1.01,0,1.86,0.18,2.69,0.53c0.6,0.26,1.16,0.57,1.64,1.02c0.09,0.09,0.2,0.17,0.14,0.32
		c-0.07,0.16-0.21,0.22-0.36,0.28c-0.07,0.02-0.12-0.05-0.17-0.09c-0.35-0.28-0.72-0.51-1.11-0.72c-0.65-0.34-1.33-0.56-2.06-0.64
		c-0.77-0.09-1.51-0.01-2.26,0.18c-0.82,0.21-1.58,0.58-2.28,1.05c-0.11,0.07-0.21,0.11-0.32,0.05c-0.13-0.08-0.2-0.2-0.22-0.35
		c-0.01-0.08,0.05-0.13,0.11-0.17c0.53-0.36,1.08-0.67,1.67-0.92c0.61-0.26,1.24-0.41,1.89-0.5C27.64,2.05,27.9,2.05,28.04,2.05z"/>
	<path fill="#8BC53F" d="M28.15,3.96c1.02,0.04,1.93,0.36,2.7,1.05c0.03,0.02,0.05,0.05,0.07,0.08c0.15,0.17,0.14,0.25-0.03,0.4
		c-0.08,0.07-0.14,0.07-0.22,0c-0.39-0.34-0.83-0.62-1.32-0.79c-0.57-0.2-1.16-0.26-1.77-0.16C26.85,4.67,26.2,4.98,25.6,5.4
		c-0.13,0.09-0.19,0.07-0.29-0.06c-0.11-0.14-0.11-0.24,0.01-0.33c0.73-0.55,1.53-0.93,2.45-1.03C27.9,3.97,28.02,3.95,28.15,3.96z"
		/>
	<path fill="#8BC53F" d="M35.89,14.53c-0.42-0.95-1.41-1.58-2.52-1.46c-0.18,0.02-0.36,0.05-0.54,0.11
		c-0.05,0.02-0.11,0.04-0.15-0.03c-0.17-0.32-0.33-0.65-0.47-0.99c-0.04-0.1,0-0.13,0.1-0.13c0.12,0.01,0.24,0.01,0.37,0.02
		c0.13,0.01,0.18-0.04,0.18-0.17c0-0.2,0-0.4,0.03-0.59c0.02-0.19,0.01-0.38-0.01-0.58c-0.04-0.35-0.12-0.39-0.43-0.29
		c-0.32,0.11-0.63,0.22-0.96,0.28c-0.12,0.02-0.15-0.01-0.15-0.12c0-0.11,0-0.22-0.02-0.33c-0.02-0.13-0.06-0.22-0.22-0.24
		c-0.13-0.02-0.26-0.05-0.39-0.08c-0.09-0.02-0.2-0.04-0.27-0.09c-0.31-0.24-0.65-0.42-0.94-0.69c-0.38-0.35-0.81-0.64-1.24-0.94
		c-0.04-0.02-0.11-0.04-0.08-0.11c0.01-0.04,0.06-0.02,0.1-0.02c0.76,0.08,1.42-0.78,1.09-1.55c-0.24-0.56-0.93-0.9-1.57-0.57
		c-0.51,0.26-0.78,0.88-0.51,1.45c0.04,0.09,0.02,0.13-0.08,0.12c-0.14-0.01-0.2,0.08-0.26,0.18c-0.13,0.25-0.25,0.51-0.38,0.76
		c-0.35,0.69-0.69,1.37-1.04,2.06c-0.08,0.15-0.08,0.29,0.01,0.43c0.03,0.05,0.06,0.09,0.1,0.14c0.02,0.03,0.06,0.05,0.03,0.09
		c-0.02,0.03-0.05,0.03-0.08,0.03c-0.32,0-0.65,0-0.97,0c0,0.01,0,0.01,0,0.02c-0.24,0-0.48,0.01-0.72,0
		c-0.17,0-0.29,0.07-0.37,0.21c-0.12,0.2-0.22,0.42-0.27,0.66c-0.04,0.18-0.1,0.31-0.3,0.34c-0.14,0.02-0.27,0.09-0.39,0.16
		c-0.6,0.34-1.03,0.86-1.38,1.45c-0.08,0.13-0.07,0.2,0.05,0.27c0.16,0.08,0.22,0.21,0.18,0.39c-0.01,0.05-0.01,0.1-0.01,0.15
		c0,0.09-0.04,0.13-0.13,0.12c-0.13-0.01-0.25-0.01-0.38-0.01c-0.13,0-0.17,0.09-0.17,0.19c-0.01,0.1,0.04,0.19,0.17,0.19
		c0.12,0,0.23,0.01,0.35,0.01c0.11-0.01,0.15,0.03,0.15,0.14c0,0.37,0.08,0.72,0.25,1.05c0.43,0.87,1.14,1.36,2.1,1.45
		c0.83,0.07,1.53-0.23,2.1-0.84c0.35-0.38,0.55-0.84,0.63-1.34c0.02-0.1,0.05-0.13,0.15-0.13c0.69,0,1.37,0,2.06,0.01
		c0.31,0,0.62-0.01,0.9-0.17c0.2-0.12,0.37-0.25,0.38-0.51c0.02-0.5,0.04-0.99,0.06-1.49c0.01-0.22,0.01-0.23,0.23-0.22
		c0.46,0.02,0.82-0.15,1.06-0.55c0.03-0.06,0.08-0.1,0.11-0.16c0.06-0.13,0.11-0.08,0.16,0.01c0.16,0.28,0.32,0.56,0.48,0.84
		c0.05,0.09,0.04,0.14-0.04,0.2c-0.51,0.43-0.81,0.98-0.88,1.65c-0.08,0.79,0.17,1.48,0.74,2.03c0.82,0.79,1.98,0.94,2.98,0.37
		C35.96,17.05,36.41,15.7,35.89,14.53z M24.63,14.45c0.06-0.12,0.11-0.24,0.16-0.36c0.03-0.09,0.08-0.1,0.15-0.04
		c0.27,0.21,0.48,0.47,0.58,0.8c0.09,0.3,0.08,0.3-0.23,0.3c-0.02,0-0.04,0-0.06,0c0,0,0,0,0,0c-0.05,0-0.1,0-0.15,0
		c-0.14,0.01-0.26-0.02-0.31-0.18c-0.01-0.04-0.04-0.09-0.08-0.11C24.51,14.74,24.56,14.6,24.63,14.45z M22.36,14.87
		c0.11-0.38,0.34-0.67,0.66-0.88c0.27-0.18,0.56-0.28,0.89-0.27c0.33,0,0.33,0,0.24,0.31c-0.01,0.04-0.04,0.08-0.05,0.13
		c-0.02,0.26-0.16,0.36-0.42,0.38c-0.23,0.02-0.42,0.18-0.54,0.38c-0.06,0.1-0.14,0.15-0.26,0.13c-0.14-0.02-0.27-0.02-0.41-0.02
		C22.35,15.03,22.33,14.97,22.36,14.87z M25.57,15.66c-0.12,0.6-0.55,1.1-1.16,1.29c-0.79,0.25-1.69-0.18-2.01-0.96
		c-0.06-0.14-0.1-0.29-0.12-0.44c-0.02-0.13,0.02-0.17,0.15-0.15c0.06,0.01,0.12,0,0.18,0c0,0,0,0,0,0.01c0.02,0,0.03,0,0.05,0
		c0.28,0,0.27,0.01,0.33,0.27c0.09,0.39,0.46,0.74,0.95,0.73c0.47-0.01,0.85-0.33,0.93-0.8c0.01-0.07,0.04-0.11,0.11-0.11
		c0.16,0,0.31,0.01,0.47,0.01C25.56,15.53,25.59,15.58,25.57,15.66z M30.79,10.57c0,0.11-0.08,0.09-0.15,0.09c-0.13,0-0.26,0-0.39,0
		c-0.79,0.01-1.53,0.19-2.25,0.51c-0.07,0.03-0.12,0.03-0.16-0.04c-0.11-0.16-0.18-0.33-0.24-0.5c-0.02-0.05-0.02-0.1,0-0.15
		c0.18-0.42,0.36-0.84,0.55-1.26c0.03-0.08,0.08-0.11,0.16-0.04c0.29,0.27,0.64,0.44,1,0.6c0.46,0.21,0.92,0.39,1.4,0.54
		C30.85,10.36,30.79,10.48,30.79,10.57z M34.33,17c-0.22,0.1-0.45,0.16-0.66,0.14c-0.77,0.02-1.37-0.48-1.59-1.08
		c-0.22-0.63-0.09-1.2,0.35-1.69c0.07-0.08,0.12-0.09,0.18,0.02c0.06,0.13,0.14,0.25,0.21,0.37c0.06,0.1,0.07,0.17-0.01,0.27
		c-0.22,0.31-0.23,0.65-0.03,0.97c0.2,0.33,0.51,0.47,0.9,0.41c0.35-0.05,0.58-0.26,0.7-0.58c0.19-0.53-0.17-1.09-0.73-1.17
		c-0.13-0.02-0.22-0.05-0.27-0.19c-0.06-0.14-0.15-0.28-0.22-0.41c-0.04-0.08-0.04-0.12,0.06-0.15c0.82-0.24,1.73,0.26,2,1.06
		C35.49,15.81,35.07,16.66,34.33,17z"/>
	<path d="M19.7,10.8c0-1.03-0.19-2-0.73-2.89c-0.52-0.86-1.27-1.41-2.23-1.69c-0.36-0.1-0.73-0.16-1.11-0.2
		c-0.89-0.09-1.76,0.01-2.59,0.32c-1.01,0.39-1.71,1.12-2.14,2.11c-0.3,0.68-0.43,1.4-0.44,2.13c-0.02,0.86-0.02,1.72,0,2.57
		c0.02,0.88,0.18,1.74,0.6,2.53c0.58,1.11,1.5,1.75,2.71,2.02c0.52,0.11,1.04,0.13,1.56,0.12c0.68-0.01,1.34-0.14,1.97-0.41
		c0.83-0.36,1.44-0.97,1.84-1.77c0.37-0.73,0.54-1.51,0.56-2.33c0.01-0.45,0-0.9,0-1.36c0,0,0,0,0,0
		C19.7,11.58,19.7,11.19,19.7,10.8z M16.97,13.18c-0.01,0.51-0.09,1.02-0.33,1.48c-0.28,0.53-0.74,0.77-1.31,0.82
		c-0.33,0.03-0.67,0.02-0.99-0.09c-0.37-0.13-0.66-0.37-0.84-0.73c-0.21-0.43-0.28-0.89-0.31-1.37c-0.04-0.82-0.02-1.63-0.02-2.45
		c0-0.49,0.05-0.99,0.23-1.46c0.21-0.53,0.6-0.87,1.17-0.97c0.42-0.07,0.85-0.07,1.26,0.08c0.41,0.15,0.69,0.42,0.86,0.82
		c0.22,0.51,0.28,1.05,0.28,1.6c0,0.34,0,0.68,0,1.02c0,0,0,0,0,0C16.98,12.35,16.99,12.76,16.97,13.18z"/>
</g>
</svg>
