<svg xmlns="http://www.w3.org/2000/svg" width="17.498" height="17.897" viewBox="0 0 17.498 17.897">
  <g id="Group_1" data-name="Group 1" transform="translate(-143.52 -27.706)">
    <rect id="Rectangle_8" data-name="Rectangle 8" width="5.962" height="2.754" rx="1.377" transform="translate(149.223 27.706)" fill="#97a2aa"/>
    <path id="Path_29" data-name="Path 29" d="M156.157,28.459a1.684,1.684,0,0,1,.238.854v.821a1.7,1.7,0,0,1-1.7,1.7h-4.844a1.7,1.7,0,0,1-1.7-1.7v-.821a1.683,1.683,0,0,1,.237-.854,5.423,5.423,0,0,0-4.861,5.393v6.653a5.423,5.423,0,0,0,5.422,5.422H155.6a5.423,5.423,0,0,0,5.422-5.422V33.852A5.423,5.423,0,0,0,156.157,28.459Zm.4,13.116h-8.943a1.037,1.037,0,0,1,0-2.074h8.943a1.037,1.037,0,0,1,0,2.074Zm0-4.893h-8.943a1.037,1.037,0,1,1,0-2.074h8.943a1.037,1.037,0,0,1,0,2.074Z" transform="translate(0 -0.325)" fill="#97a2aa"/>
  </g>
</svg>
